# xmcd
#
# Track frame offsets:
#	150
#	132795
#	239263
#
# Disc length: 3792 seconds
#
# Revision: 0
# Processed by: cddbd v1.5.1PL2 Copyright (c) Steve Scherf et al.
# Submitted via: EasyCDDAExtractor 9.0.0.1
#
DISCID=1e0ece03
DTITLE=The Haters - Blank Banner
DYEAR=1993
DGENRE=Noise
TTITLE0=Noise as the Blank Banner of an Untitled Ideology
TTITLE1=The Facts On Polywave
TTITLE2=Strength Through Emptiness
EXTD=
EXTT0=
EXTT1=
EXTT2=
PLAYORDER=
